<svg xmlns="http://www.w3.org/2000/svg" viewBox="0 0 1200 800" role="img" aria-labelledby="title desc">
  <title id="title">Getir Rush oyun kapağı</title><desc id="desc">Neon şehirde hızla giden mor kurye</desc>
  <defs><linearGradient id="bg" x2="1" y2="1"><stop stop-color="#241049"/><stop offset=".58" stop-color="#5d2d91"/><stop offset="1" stop-color="#ff4f9a"/></linearGradient><linearGradient id="road"><stop stop-color="#24143b"/><stop offset="1" stop-color="#0d0920"/></linearGradient><filter id="s"><feDropShadow dx="0" dy="18" stdDeviation="18" flood-color="#0b0618" flood-opacity=".65"/></filter></defs>
  <rect width="1200" height="800" fill="url(#bg)"/><g fill="#fff" opacity=".12"><rect x="40" y="110" width="210" height="360" rx="20"/><rect x="280" y="40" width="180" height="430" rx="20"/><rect x="790" y="90" width="155" height="380" rx="20"/><rect x="970" y="25" width="190" height="445" rx="20"/></g><g fill="#ffd300" opacity=".55"><path d="M85 160h25v25H85zm60 0h25v25h-25zm180-60h22v22h-22zm52 0h22v22h-22zm456 50h20v20h-20zm65 0h20v20h-20zm122-65h24v24h-24zm62 0h24v24h-24z"/></g>
  <path d="M-80 800 380 420h440l460 380z" fill="url(#road)"/><g stroke="#ffd300" stroke-width="12" stroke-linecap="round" opacity=".8"><path d="M240 720 510 470M960 720 690 470"/><path d="M540 680h120M565 590h70M585 525h30"/></g>
  <g transform="translate(610 430) rotate(-7)" filter="url(#s)"><path d="M-240 40h165" stroke="#ffd300" stroke-width="24" stroke-linecap="round" opacity=".8"/><circle cx="-45" cy="90" r="48" fill="#171029" stroke="#fff" stroke-width="9"/><circle cx="120" cy="90" r="48" fill="#171029" stroke="#fff" stroke-width="9"/><path d="M-45 88 0 5h112l34 84H-45z" fill="#ffd300" stroke="#fff" stroke-width="8"/><path d="M4 4 64-54h70l-21 62z" fill="#5d2d91" stroke="#fff" stroke-width="8"/><circle cx="92" cy="-93" r="38" fill="#ffd7b8"/><path d="M54-83q40-80 81 0" fill="#5d2d91"/><path d="M42-54-18 0" stroke="#ffd7b8" stroke-width="20" stroke-linecap="round"/><rect x="-63" y="-53" width="72" height="80" rx="12" fill="#5d2d91" stroke="#fff" stroke-width="7"/><text x="-27" y="-4" text-anchor="middle" fill="#ffd300" font-family="Arial Black" font-size="28">g!</text></g>
  <g font-family="Arial Black,Arial,sans-serif" filter="url(#s)"><text x="70" y="655" fill="#fff" font-size="96" letter-spacing="-5">GETİR</text><text x="70" y="750" fill="#ffd300" font-size="118" letter-spacing="-7">RUSH</text></g><g transform="translate(1050 665)"><circle r="64" fill="#5d2d91" stroke="#fff" stroke-width="7"/><text y="13" text-anchor="middle" fill="#ffd300" font-family="Arial Black" font-size="38">g!</text></g>
</svg>
